# xmcd
#
# Track frame offsets: 
#        150
#        6979
#        14186
#        23222
#        33309
#        41981
#        50244
#        58667
#        71264
#        79424
#        88293
#        102775
#        110516
#        120635
#        125917
#        132817
#        140266
#        157123
#        174169
#        179507
#        190083
#        200013
#        212787
#        221440
#        235696
#        246349
#        256434
#        266314
#
# Disc length: 3647 seconds
#
# Revision: 0
# Processed by: cddbd v1.5.2PL0 Copyright (c) Steve Scherf et al.
# Submitted via: ExactAudioCopy v0.99pb5
#
DISCID=a60e3d1c
DTITLE=НЗАНУХУ iменi Г.Г. Верьовки - Мамина колискова
DYEAR=2005
DGENRE=Folklore
TTITLE0=Повiшу колиску
TTITLE1=Ой, ходить сон
TTITLE2=Колисала баба дiда
TTITLE3=Люляй, люляй колишу тi
TTITLE4=Ой, ходить сон
TTITLE5=Го-на, го-на-на
TTITLE6=Люлi налетiли гулi 
TTITLE7=Спи iсусе
TTITLE8=Ой, ти кiт воркiт 
TTITLE9=Ой, коточок
TTITLE10=Леле, леле
TTITLE11=Киця мура
TTITLE12=Котик сiренкий
TTITLE13=Ой на кота, воркота
TTITLE14=Ходить котко
TTITLE15=Ой люлi, котiв два
TTITLE16=Коти з'їли барана
TTITLE17=Гойда, гойдаша
TTITLE18=Колиш бабо
TTITLE19=Ой ну, ну коту
TTITLE20=Ходить сонко по вулицi
TTITLE21=Ой ну, люлi
TTITLE22=А-а ходить зайчик
TTITLE23=Ой, ходить сон
TTITLE24=Ходить зайчик
TTITLE25=Ой, ну котару
TTITLE26=Колисала баба дiда
TTITLE27=Ой, ходить сон
EXTD=
EXTT0=
EXTT1=
EXTT2=
EXTT3=
EXTT4=
EXTT5=
EXTT6=
EXTT7=
EXTT8=
EXTT9=
EXTT10=
EXTT11=
EXTT12=
EXTT13=
EXTT14=
EXTT15=
EXTT16=
EXTT17=
EXTT18=
EXTT19=
EXTT20=
EXTT21=
EXTT22=
EXTT23=
EXTT24=
EXTT25=
EXTT26=
EXTT27=
PLAYORDER=
